<svg width="16" height="16" viewBox="0 0 16 16" fill="none" xmlns="http://www.w3.org/2000/svg">
<path d="M1.72323 15.0599L3.80332 14.6439C4.09371 14.5858 4.3604 14.4431 4.5698 14.2337L12.3184 6.48508C12.9042 5.8993 12.9042 4.94955 12.3184 4.36376L11.8311 3.87639C11.2453 3.2906 10.2955 3.2906 9.70974 3.87639L1.96111 11.625C1.75171 11.8344 1.60898 12.1011 1.5509 12.3915L1.13488 14.4716C1.06491 14.8215 1.37337 15.1299 1.72323 15.0599Z" fill="#9D9FAB"/>
<path d="M15.0095 1.83747L14.3574 1.18529C13.8171 0.645013 12.9411 0.645014 12.4008 1.18529C11.8606 1.72557 11.8606 2.60153 12.4008 3.14181L13.053 3.79399C13.5933 4.33427 14.4693 4.33427 15.0095 3.79399C15.5498 3.25371 15.5498 2.37775 15.0095 1.83747Z" fill="#9D9FAB"/>
<path d="M3.75429 14.3988L1.6742 14.8148C1.49927 14.8498 1.34504 14.6956 1.38003 14.5206L1.79604 12.4405C1.84444 12.1985 1.96338 11.9763 2.13789 11.8018L9.88652 4.05316C10.3747 3.56501 11.1661 3.56501 11.6543 4.05316L12.1417 4.54054C12.6298 5.0287 12.6298 5.82015 12.1417 6.30831L4.39303 14.0569C4.21853 14.2314 3.99628 14.3504 3.75429 14.3988ZM14.1806 1.36207L14.8328 2.01424C15.2754 2.45689 15.2754 3.17456 14.8328 3.61721C14.3901 4.05986 13.6724 4.05986 13.2298 3.61721L12.5776 2.96504C12.135 2.52239 12.135 1.80472 12.5776 1.36207C13.0203 0.919421 13.7379 0.919421 14.1806 1.36207Z" stroke="white" stroke-opacity="0.3" stroke-width="0.5"/>
<rect x="6.61279" y="13.332" width="9.375" height="1.875" rx="0.9375" fill="#9D9FAB"/>
</svg>
