<svg width="14" height="14" viewBox="0 0 14 14" fill="none" xmlns="http://www.w3.org/2000/svg">
<path d="M0.873535 11.2363V10.2594H2.57979V5.27684C2.57979 4.36501 2.91494 3.55358 3.58525 2.84257C4.25557 2.13156 5.13916 1.68378 6.23603 1.49925V1.02705C6.23603 0.777379 6.34775 0.571131 6.57119 0.408303C6.79463 0.245476 7.06208 0.164062 7.37354 0.164062C7.68499 0.164062 7.95244 0.245476 8.17588 0.408303C8.39932 0.571131 8.51104 0.777379 8.51104 1.02705V1.49925C9.60791 1.68378 10.4949 2.13156 11.172 2.84257C11.8491 3.55358 12.1876 4.36501 12.1876 5.27684V10.2594H13.8735V11.2363H0.873535ZM7.37354 13.1902C6.9402 13.1902 6.56103 13.0627 6.23603 12.8076C5.91104 12.5525 5.74854 12.2458 5.74854 11.8876H8.99854C8.99854 12.2458 8.83942 12.5525 8.52119 12.8076C8.20296 13.0627 7.82041 13.1902 7.37354 13.1902Z" fill="white"/>
</svg>
