<svg width="41" height="33" viewBox="0 0 41 33" fill="none" xmlns="http://www.w3.org/2000/svg">
<path d="M3.49652 0.992188L7.19652 8.59219H13.6965L9.99652 0.992188H14.4465L18.1465 8.59219H24.6465L20.9465 0.992188H25.3965L29.0965 8.59219H35.5965L31.8965 0.992188H37.4965C38.2965 0.992188 38.9965 1.29219 39.5965 1.89219C40.1965 2.49219 40.4965 3.19219 40.4965 3.99219V29.9922C40.4965 30.7922 40.1965 31.4922 39.5965 32.0922C38.9965 32.6922 38.2965 32.9922 37.4965 32.9922H3.49652C2.69652 32.9922 1.99652 32.6922 1.39652 32.0922C0.796521 31.4922 0.496521 30.7922 0.496521 29.9922V3.99219C0.496521 3.19219 0.796521 2.49219 1.39652 1.89219C1.99652 1.29219 2.69652 0.992188 3.49652 0.992188ZM3.49652 11.5922V29.9922H37.4965V11.5922H3.49652Z" fill="#9D9FAB"/>
<path d="M13.0885 17.1201H15.0565L16.5685 21.2721C16.6645 21.5521 16.7565 21.8361 16.8445 22.1241C16.9325 22.4121 17.0205 22.7001 17.1085 22.9881H17.1685C17.2645 22.7001 17.3525 22.4121 17.4325 22.1241C17.5205 21.8361 17.6125 21.5521 17.7085 21.2721L19.1845 17.1201H21.1525V26.0001H19.5325V22.2921C19.5325 22.0841 19.5405 21.8561 19.5565 21.6081C19.5725 21.3521 19.5885 21.0961 19.6045 20.8401C19.6285 20.5761 19.6525 20.3201 19.6765 20.0721C19.7005 19.8161 19.7245 19.5841 19.7485 19.3761H19.7005L18.9805 21.4641L17.6125 25.1961H16.5925L15.2125 21.4641L14.5045 19.3761H14.4565C14.4805 19.5841 14.5045 19.8161 14.5285 20.0721C14.5525 20.3201 14.5765 20.5761 14.6005 20.8401C14.6245 21.0961 14.6445 21.3521 14.6605 21.6081C14.6765 21.8561 14.6845 22.0841 14.6845 22.2921V26.0001H13.0885V17.1201Z" fill="#9D9FAB"/>
<path d="M24.8307 22.7481L22.1667 17.1201H24.0507L24.9387 19.2801C25.0667 19.6161 25.1907 19.9441 25.3107 20.2641C25.4387 20.5761 25.5707 20.9041 25.7067 21.2481H25.7547C25.8907 20.9041 26.0227 20.5761 26.1507 20.2641C26.2867 19.9441 26.4187 19.6161 26.5467 19.2801L27.4347 17.1201H29.2827L26.6067 22.7481V26.0001H24.8307V22.7481Z" fill="#9D9FAB"/>
</svg>
