<svg width="21" height="21" viewBox="0 0 21 21" fill="none" xmlns="http://www.w3.org/2000/svg">
<rect x="0.204346" y="0.28418" width="20" height="20" rx="10" fill="#A9ACBB"/>
<path d="M14.1643 10.1042C14.1643 7.68418 12.3643 5.91418 9.93435 5.91418C7.50435 5.91418 5.71435 7.68418 5.71435 10.1042C5.71435 12.5242 7.51435 14.2942 9.94435 14.2942C10.7043 14.2942 11.4043 14.1242 12.0043 13.8042L13.1543 15.2542L13.9743 14.6342L12.8543 13.2142C13.6743 12.4642 14.1643 11.3742 14.1643 10.1042ZM9.94435 13.3342C8.11435 13.3342 6.76435 11.9842 6.76435 10.1042C6.76435 8.21418 8.10435 6.87418 9.93435 6.87418C11.7643 6.87418 13.1143 8.21418 13.1143 10.1042C13.1143 11.0342 12.7843 11.8442 12.2243 12.4142L10.7443 10.5442L9.92435 11.1742L11.3843 13.0142C10.9543 13.2242 10.4743 13.3342 9.94435 13.3342Z" fill="white"/>
</svg>
