<svg width="17" height="17" viewBox="0 0 17 17" fill="none" xmlns="http://www.w3.org/2000/svg">
<path fill-rule="evenodd" clip-rule="evenodd" d="M14.497 1.28996C14.8875 0.899439 15.5207 0.899439 15.9112 1.28996C16.3017 1.68049 16.3017 2.31365 15.9112 2.70418L9.61831 8.99707L15.9112 15.29C16.3017 15.6805 16.3017 16.3137 15.9112 16.7042C15.5207 17.0947 14.8875 17.0947 14.497 16.7042L8.2041 10.4113L1.91121 16.7042C1.52068 17.0947 0.887519 17.0947 0.496995 16.7042C0.10647 16.3137 0.10647 15.6805 0.496995 15.29L6.78989 8.99707L0.496995 2.70418C0.106471 2.31365 0.106471 1.68049 0.496995 1.28996C0.887519 0.899439 1.52068 0.899439 1.91121 1.28996L8.2041 7.58286L14.497 1.28996Z" fill="#A6ACB8"/>
</svg>
