<svg width="16" height="16" viewBox="0 0 16 16" fill="none" xmlns="http://www.w3.org/2000/svg">
<circle cx="8" cy="8" r="8" fill="#D4D5DD"/>
<path fill-rule="evenodd" clip-rule="evenodd" d="M5.68754 5.14645C5.49228 4.95118 5.17569 4.95118 4.98043 5.14645C4.78517 5.34171 4.78517 5.65829 4.98043 5.85355L7.21021 8.08333L4.98043 10.3131C4.78517 10.5084 4.78517 10.825 4.98043 11.0202C5.17569 11.2155 5.49228 11.2155 5.68754 11.0202L7.91732 8.79044L10.1471 11.0202C10.3424 11.2155 10.6589 11.2155 10.8542 11.0202C11.0495 10.825 11.0495 10.5084 10.8542 10.3131L8.62442 8.08333L10.8542 5.85355C11.0495 5.65829 11.0495 5.34171 10.8542 5.14645C10.6589 4.95118 10.3424 4.95118 10.1471 5.14645L7.91732 7.37623L5.68754 5.14645Z" fill="white"/>
</svg>
