<svg width="14" height="15" viewBox="0 0 14 15" fill="none" xmlns="http://www.w3.org/2000/svg">
<path d="M9.32158 10.7705C9.17411 10.5932 9.09754 10.3982 9.09187 10.1855C9.0862 9.97273 9.16277 9.78362 9.32158 9.61816L10.4106 8.50125H5.47603C5.24916 8.50125 5.06482 8.42147 4.92302 8.26191C4.78122 8.10236 4.71033 7.9103 4.71033 7.68573C4.71033 7.44935 4.78122 7.25729 4.92302 7.10955C5.06482 6.96181 5.24916 6.88794 5.47603 6.88794H10.3766L9.25352 5.70012C9.10605 5.55829 9.03515 5.38101 9.04082 5.16826C9.04649 4.95552 9.12874 4.76641 9.28755 4.60095C9.42368 4.45912 9.60518 4.39116 9.83205 4.39707C10.0589 4.40298 10.2518 4.47685 10.4106 4.61868L12.8098 7.13614C12.8665 7.20706 12.9176 7.2957 12.9629 7.40207C13.0083 7.50845 13.031 7.60891 13.031 7.70346C13.031 7.80983 13.0083 7.91325 12.9629 8.01371C12.9176 8.11417 12.8665 8.19395 12.8098 8.25305L10.4106 10.7882C10.2631 10.9419 10.0873 11.0128 9.8831 11.001C9.67891 10.9892 9.49174 10.9123 9.32158 10.7705ZM1.59645 14.4758C1.16539 14.4758 0.796713 14.3162 0.49043 13.9971C0.184147 13.678 0.0310059 13.2998 0.0310059 12.8625V2.50897C0.0310059 2.07166 0.184147 1.69049 0.49043 1.36547C0.796713 1.04044 1.16539 0.87793 1.59645 0.87793H5.86739C6.09427 0.87793 6.28144 0.960663 6.42891 1.12613C6.57638 1.2916 6.65012 1.48661 6.65012 1.71118C6.65012 1.94756 6.57638 2.13962 6.42891 2.28736C6.28144 2.4351 6.09427 2.50897 5.86739 2.50897H1.59645V12.8625H5.86739C6.09427 12.8625 6.28144 12.9364 6.42891 13.0841C6.57638 13.2318 6.65012 13.4239 6.65012 13.6603C6.65012 13.8967 6.57638 14.0917 6.42891 14.2453C6.28144 14.399 6.09427 14.4758 5.86739 14.4758H1.59645Z" fill="white"/>
</svg>
