<svg width="12" height="14" viewBox="0 0 12 14" fill="none" xmlns="http://www.w3.org/2000/svg">
<path d="M5.18854 10.7718L2.94604 8.54551L3.62854 7.86301L5.18854 9.39051L8.17854 6.40051L8.86104 7.09926L5.18854 10.7718ZM1.07729 13.1768C0.817295 13.1768 0.589795 13.0793 0.394795 12.8843C0.199795 12.6893 0.102295 12.4618 0.102295 12.2018V2.12676C0.102295 1.86676 0.199795 1.63926 0.394795 1.44426C0.589795 1.24926 0.817295 1.15176 1.07729 1.15176H2.13354V0.176758H3.18979V1.15176H8.71479V0.176758H9.77104V1.15176H10.8273C11.0873 1.15176 11.3148 1.24926 11.5098 1.44426C11.7048 1.63926 11.8023 1.86676 11.8023 2.12676V12.2018C11.8023 12.4618 11.7048 12.6893 11.5098 12.8843C11.3148 13.0793 11.0873 13.1768 10.8273 13.1768H1.07729ZM1.07729 12.2018H10.8273V5.21426H1.07729V12.2018Z" fill="white"/>
</svg>
