<svg width="15" height="19" viewBox="0 0 15 19" fill="none" xmlns="http://www.w3.org/2000/svg">
<path d="M2.41565 18.396C1.9987 18.396 1.64701 18.2528 1.36057 17.9663C1.07413 17.6799 0.930908 17.3282 0.930908 16.9112V8.00278C0.930908 7.58583 1.07413 7.23413 1.36057 6.94769C1.64701 6.66125 1.9987 6.51803 2.41565 6.51803H3.59532V4.56549C3.59532 3.40447 3.9998 2.4193 4.80878 1.60999C5.61774 0.80066 6.59611 0.395996 7.7439 0.395996C8.89167 0.395996 9.87023 0.80066 10.6796 1.60999C11.4889 2.4193 11.8936 3.40447 11.8936 4.56549V6.51803H13.0733C13.4902 6.51803 13.8419 6.66125 14.1284 6.94769C14.4148 7.23413 14.558 7.58583 14.558 8.00278V16.9112C14.558 17.3282 14.4148 17.6799 14.1284 17.9663C13.8419 18.2528 13.4902 18.396 13.0733 18.396H2.41565ZM2.41565 16.9112H13.0733V8.00278H2.41565V16.9112ZM7.74951 14.1858C8.22073 14.1858 8.62243 14.0224 8.95464 13.6954C9.28684 13.3685 9.45294 12.9755 9.45294 12.5164C9.45294 12.07 9.28516 11.6672 8.94959 11.3079C8.61403 10.9485 8.21064 10.7689 7.73942 10.7689C7.26821 10.7689 6.8665 10.9491 6.5343 11.3095C6.20209 11.6699 6.03599 12.0767 6.03599 12.5298C6.03599 12.983 6.20378 13.3723 6.53934 13.6977C6.87491 14.0231 7.2783 14.1858 7.74951 14.1858ZM5.08006 6.51803H10.4089V4.56549C10.4089 3.81746 10.1498 3.183 9.63176 2.6621C9.11367 2.1412 8.48458 1.88074 7.74447 1.88074C7.00436 1.88074 6.37526 2.1412 5.85717 2.6621C5.3391 3.183 5.08006 3.81746 5.08006 4.56549V6.51803Z" fill="white"/>
</svg>
